<?xml version="1.0" encoding="utf-8"?>
<!-- Generator: Adobe Illustrator 16.0.0, SVG Export Plug-In . SVG Version: 6.00 Build 0)  -->
<!DOCTYPE svg PUBLIC "-//W3C//DTD SVG 1.1//EN" "http://www.w3.org/Graphics/SVG/1.1/DTD/svg11.dtd">
<svg version="1.1" id="svg" xmlns="http://www.w3.org/2000/svg" xmlns:xlink="http://www.w3.org/1999/xlink" x="0px" y="0px"
	 width="300px" height="300px" viewBox="0 0 300 300" style="enable-background:new 0 0 300 300;" xml:space="preserve">
<style type="text/css">

	.st0{fill:#EF4136; animation: updown 1s infinite;}
	.st1{fill:#BE1E2D;animation: updown 1.5s infinite;}
	.st2{fill:#F15A29;animation: updown 2s infinite;}
	.st3{fill:#F7941E;animation: updown 1.81s infinite;}
	.st4{fill:#FBB040;animation: updown 1.2s infinite;}

	.st0.on{fill:#fff000;}
	.st1.on{fill:#fffE2D;}
	.st2.on{fill:#fffA29;}
	.st3.on{fill:#fff000;}
	.st4.on{fill:#fff000;}

	@keyframes updown{
		50%{ transform:translateY(10px)}
	}
</style>
<path class="st3" d="M80.421,92.898c7.408,9.597-2.206,20.189-2.81,33.809c-12.986-2.418-26.011,3.754-33.419-5.842
	c-7.408-9.596,2.919-23.584,17.254-15.097C57.099,89.571,73.014,83.302,80.421,92.898z"/>
<path class="st2" d="M176.905,99.064c-3.52,14.993-21.664,14.009-35.571,24.333c-8.026-14.736-24.55-22.624-21.032-37.617
	c3.519-14.993,25.583-16.029,28.709,4.902C161.487,73.413,180.423,84.071,176.905,99.064z"/>
<path class="st4" d="M237.944,132.098c-4.86,8.137-15.319,4.175-25.401,7.635c-1.959-10.14-10.178-17.849-5.317-25.985
	c4.861-8.137,17.994-4.629,15.923,8.23C233.687,114.178,242.804,123.961,237.944,132.098z"/>
<path class="st0" d="M119.44,166.173c2.638,10.708-9.253,15.989-14.76,27.1c-9.917-6.782-23.022-6.431-25.661-17.138
	c-2.638-10.707,11.093-18.553,19.904-6.224C101.255,154.836,116.801,155.467,119.44,166.173z"/>
<path class="st1" d="M194.088,185.291c-4.017,7.532-13.601,4.427-22.52,7.981c-2.206-9.036-9.938-15.612-5.922-23.146
	s15.986-4.953,14.687,6.707C189.474,169.354,198.104,177.756,194.088,185.291z"/>
</svg>
